<?xml version="1.0" standalone="no"?>
<!DOCTYPE svg PUBLIC "-//W3C//DTD SVG 20010904//EN"
 "http://www.w3.org/TR/2001/REC-SVG-20010904/DTD/svg10.dtd">
<svg version="1.0" xmlns="http://www.w3.org/2000/svg"
 width="2362.000000pt" height="2362.000000pt" viewBox="0 0 2362.000000 2362.000000"
 preserveAspectRatio="xMidYMid meet">
<metadata>
Created by potrace 1.14, written by Peter Selinger 2001-2017
</metadata>
<g transform="translate(0.000000,2362.000000) scale(0.100000,-0.100000)"
fill="#000000" stroke="none">
<path d="M8185 22890 c-1141 -47 -2082 -230 -2937 -571 -229 -91 -655 -305
-856 -429 -765 -472 -1383 -1220 -1922 -2323 -570 -1166 -1010 -2661 -1329
-4517 -263 -1527 -436 -3384 -471 -5070 -6 -272 -15 -562 -21 -645 -39 -569
-33 -1023 22 -1575 159 -1601 718 -3043 1612 -4155 301 -374 687 -758 1058
-1054 300 -239 424 -335 547 -425 1233 -899 2734 -1394 4412 -1456 157 -6
1624 -49 3260 -96 2793 -81 2991 -85 3240 -75 1717 73 3180 550 4441 1448 520
371 1022 840 1459 1363 883 1057 1547 2420 1930 3960 441 1775 487 3766 130
5660 -310 1642 -903 3157 -1725 4405 -349 530 -713 978 -1170 1444 -1175 1196
-2696 2142 -4550 2831 -1804 671 -3849 1125 -5630 1250 -467 32 -1121 45
-1500 30z m1740 -3361 c366 -17 796 -55 1185 -105 2423 -309 4483 -1107 5889
-2279 362 -301 715 -658 986 -995 885 -1102 1480 -2634 1674 -4310 117 -1009
79 -2050 -109 -2990 -334 -1664 -1093 -2989 -2217 -3867 -511 -399 -1170 -721
-1834 -897 -517 -137 -1121 -208 -1644 -193 -643 18 -1121 201 -1509 577 -516
501 -773 1254 -836 2455 -26 489 -5 1341 65 2635 26 491 24 1194 -5 1516 -21
235 -67 497 -110 624 -169 511 -782 1081 -1510 1406 -785 350 -1628 434 -2395
239 -368 -93 -675 -231 -1005 -450 -205 -136 -342 -248 -529 -430 -276 -270
-498 -550 -725 -918 -481 -778 -630 -1988 -386 -3140 140 -662 411 -1290 782
-1813 578 -815 1376 -1356 2366 -1604 370 -93 821 -150 1180 -150 l142 0 0
-410 0 -410 -42 0 c-107 1 -468 21 -608 35 -1238 122 -2319 610 -3127 1413
-895 888 -1443 2116 -1579 3537 -25 253 -25 803 -1 1045 86 859 304 1492 732
2130 824 1226 1950 1941 3255 2066 226 22 679 14 900 -15 864 -115 1679 -455
2320 -967 159 -128 444 -408 555 -548 185 -233 342 -515 422 -756 98 -294 152
-678 174 -1228 15 -389 4 -812 -51 -1947 -69 -1428 -48 -2120 80 -2727 211
-997 697 -1388 1680 -1353 1026 36 1834 280 2560 773 307 208 643 513 884 802
821 983 1307 2351 1397 3932 15 273 7 980 -15 1223 -85 938 -268 1732 -581
2521 -509 1282 -1273 2226 -2420 2991 -1232 821 -2887 1390 -4805 1653 -532
72 -1232 130 -1591 130 l-126 0 -6 257 c-4 141 -7 325 -7 409 l0 153 168 -5
c92 -3 262 -9 377 -15z"/>
</g>
</svg>
