<?xml version="1.0" standalone="no"?>
<!DOCTYPE svg PUBLIC "-//W3C//DTD SVG 20010904//EN"
 "http://www.w3.org/TR/2001/REC-SVG-20010904/DTD/svg10.dtd">
<svg version="1.0" xmlns="http://www.w3.org/2000/svg"
 width="700.000000pt" height="700.000000pt" viewBox="0 0 700.000000 700.000000"
 preserveAspectRatio="xMidYMid meet">
<metadata>
Created by potrace 1.14, written by Peter Selinger 2001-2017
</metadata>
<g transform="translate(0.000000,700.000000) scale(0.100000,-0.100000)"
fill="#000000" stroke="none">
<path d="M431 5831 c-12 -14 -35 -51 -49 -81 l-27 -55 2 -1180 c3 -2093 4
-2222 24 -2287 22 -73 45 -103 97 -126 40 -18 49 -18 125 -5 76 13 95 22 262
122 210 125 393 246 453 297 l42 35 -5 432 c-5 486 -15 1501 -20 1917 l-3 275
-32 100 c-18 55 -37 106 -42 112 -16 20 -494 335 -583 385 -162 90 -208 101
-244 59z"/>
<path d="M5209 5758 c-214 -139 -381 -237 -416 -244 -26 -5 -48 6 -154 76
-206 137 -399 250 -428 250 -61 0 -416 -213 -816 -488 -107 -74 -117 -83 -95
-89 39 -10 197 -95 306 -163 13 -8 56 -35 96 -59 40 -24 172 -108 294 -187
201 -131 252 -158 255 -136 0 4 2 90 3 192 1 175 3 188 26 235 30 61 90 108
164 129 68 20 103 20 152 0 109 -43 340 -177 669 -387 188 -120 254 -156 265
-149 13 8 15 66 16 423 0 431 -4 494 -43 580 -16 36 -65 99 -76 99 -1 0 -16 4
-34 9 -29 8 -42 2 -184 -91z"/>
<path d="M5630 5748 c0 -7 5 -33 12 -58 7 -32 11 -635 13 -2080 1 -1361 5
-2045 12 -2065 33 -95 71 -134 126 -129 40 4 215 92 432 218 105 60 209 120
232 133 99 56 159 145 183 269 12 66 10 2956 -3 3009 -4 17 -9 44 -12 61 -6
35 -35 63 -143 140 -150 109 -812 514 -838 514 -8 0 -14 -6 -14 -12z"/>
<path d="M4462 5149 c-49 -10 -90 -55 -109 -119 -15 -50 -17 -173 -18 -1335 0
-704 3 -1306 7 -1337 16 -119 75 -185 154 -174 72 9 246 101 419 221 56 39
124 75 140 75 18 0 124 73 164 112 24 24 58 72 75 108 l31 65 3 920 c2 506 0
938 -3 960 -5 38 -12 44 -103 104 -390 260 -620 393 -697 403 -16 3 -45 1 -63
-3z"/>
<path d="M3115 5127 c-44 -21 -71 -55 -92 -117 -17 -53 -18 -132 -18 -1745 0
-1574 1 -1694 17 -1745 22 -70 53 -107 102 -124 38 -13 41 -12 139 36 102 50
213 117 327 198 36 26 108 67 160 93 136 66 205 139 234 248 12 47 14 257 14
1365 -1 720 -5 1323 -9 1339 -7 24 -38 49 -157 127 -336 220 -537 327 -630
334 -36 3 -68 -1 -87 -9z"/>
<path d="M1639 2532 c-11 -4 -90 -50 -254 -149 -11 -7 -27 -16 -35 -20 -8 -4
-50 -29 -92 -55 -43 -26 -82 -48 -88 -48 -5 0 -10 -3 -10 -7 0 -5 -10 -13 -23
-19 -12 -6 -87 -48 -167 -94 -174 -100 -308 -170 -327 -170 -7 0 -13 -4 -13
-8 0 -5 89 -67 197 -139 493 -325 732 -457 808 -449 30 3 238 119 509 283 204
123 242 149 332 216 81 61 82 62 81 105 0 40 -5 48 -54 90 -102 88 -330 238
-506 333 -259 140 -291 151 -358 131z"/>
</g>
</svg>
