<?xml version="1.0" encoding="utf-8"?>
<!-- Generator: Adobe Illustrator 21.0.0, SVG Export Plug-In . SVG Version: 6.00 Build 0)  -->
<svg version="1.1" id="Layer_1" xmlns="http://www.w3.org/2000/svg"  x="0px" y="0px"
	 viewBox="0 0 222.1 94" style="enable-background:new 0 0 222.1 94;" xml:space="preserve">
<style type="text/css">
	.st0{fill:#252525;}
	.st1{fill:none;stroke:#252525;stroke-width:0.5;stroke-miterlimit:10;}
	.st2{fill:#69FF47;}
	.st3{fill:none;stroke:#E6E6E6;stroke-width:0.25;stroke-miterlimit:10;}
	.st4{fill:none;stroke:#69FF47;stroke-miterlimit:10;}
	.st5{clip-path:url(#SVGID_2_);fill:none;}
	.st6{opacity:0.15;fill:#69FF47;}
	.st7{clip-path:url(#SVGID_4_);fill:none;}
</style>
<g>
	<path class="st2" d="M107.8,68.9c-0.1,0.1-0.2,0.2-0.3,0.4c0,0.1-0.1,0.3-0.1,0.5c0,0.2,0.1,0.3,0.2,0.4c0.1,0.1,0.3,0.2,0.6,0.3
		c0.2,0.1,0.5,0.2,0.8,0.2c0.3,0.1,0.6,0.1,0.9,0.2c0.3,0.1,0.6,0.2,0.9,0.3c0.3,0.1,0.6,0.2,0.8,0.4c0.5,0.3,0.8,0.8,0.8,1.3
		c0,0.7-0.2,1.2-0.7,1.5c-0.5,0.4-1.2,0.5-2.1,0.5c-1,0-1.8-0.2-2.3-0.6c-0.5-0.4-0.7-0.9-0.8-1.6h0.8c0,0.5,0.3,0.9,0.7,1.1
		c0.4,0.2,0.9,0.3,1.5,0.3c1.3,0,2-0.4,2-1.3c0-0.3-0.1-0.5-0.4-0.7c-0.2-0.2-0.5-0.3-0.9-0.4c-0.4-0.1-0.8-0.2-1.2-0.3
		c-0.4-0.1-0.8-0.2-1.2-0.4c-0.4-0.1-0.7-0.3-0.9-0.6c-0.2-0.2-0.4-0.6-0.4-1c0-0.6,0.2-1.1,0.7-1.4c0.4-0.4,1.1-0.5,2-0.5
		c0.9,0,1.6,0.2,2.1,0.6c0.5,0.4,0.7,0.8,0.7,1.4h-0.8c-0.1-0.6-0.5-1-1.1-1.2c-0.2-0.1-0.5-0.1-0.9-0.1s-0.7,0-0.9,0.1
		C108.1,68.7,107.9,68.8,107.8,68.9"/>
	<polygon class="st2" points="114.5,74.9 114.5,70.2 113.4,70.2 113.4,69.5 114.5,69.5 114.5,67.6 115.3,67.6 115.3,69.5
		116.6,69.5 116.6,70.2 115.3,70.2 115.3,74.9 	"/>
	<path class="st2" d="M122.1,74c-0.4,0.6-1.1,0.9-1.9,0.9c-0.8,0-1.4-0.3-1.9-0.8c-0.5-0.5-0.7-1.2-0.7-2c0-0.8,0.2-1.4,0.7-2
		c0.5-0.5,1.1-0.8,1.9-0.8c0.8,0,1.4,0.3,1.9,1v-0.9h0.8v5.4h-0.8V74z M120.2,74.2c0.6,0,1-0.2,1.4-0.6c0.3-0.4,0.5-0.9,0.5-1.4
		c0-0.6-0.2-1.1-0.5-1.4c-0.3-0.4-0.8-0.6-1.4-0.6c-0.6,0-1,0.2-1.4,0.6c-0.3,0.4-0.5,0.9-0.5,1.4c0,0.6,0.2,1.1,0.5,1.4
		C119.2,74,119.7,74.2,120.2,74.2"/>
	<polygon class="st2" points="126.2,77 125.4,77 126.3,74.8 124.2,69.5 125,69.5 126.8,73.9 128.5,69.5 129.4,69.5 	"/>
	<polygon class="st2" points="107.8,81.4 107.8,83.8 111.6,83.8 111.6,84.6 107.8,84.6 107.8,87.7 107,87.7 107,80.6 112.1,80.6
		112.1,81.4 	"/>
	<path class="st2" d="M115.8,82.2c0.8,0,1.5,0.3,2,0.8c0.5,0.5,0.7,1.2,0.7,2c0,0.8-0.2,1.5-0.7,2c-0.5,0.5-1.2,0.8-2,0.8
		c-0.8,0-1.5-0.3-2-0.8c-0.5-0.5-0.7-1.2-0.7-2c0-0.8,0.2-1.4,0.7-2C114.3,82.5,115,82.2,115.8,82.2 M115.8,87c0.6,0,1-0.2,1.4-0.6
		c0.3-0.4,0.5-0.9,0.5-1.4c0-0.6-0.2-1.1-0.5-1.4c-0.3-0.4-0.8-0.6-1.4-0.6c-0.6,0-1,0.2-1.4,0.6c-0.3,0.4-0.5,0.9-0.5,1.4
		c0,0.6,0.2,1.1,0.5,1.4C114.7,86.8,115.2,87,115.8,87"/>
	<path class="st2" d="M122.5,87c0.3,0,0.6-0.1,0.9-0.3c0.3-0.2,0.5-0.4,0.6-0.8h0.9c-0.2,0.5-0.5,1-0.9,1.3c-0.5,0.3-1,0.5-1.6,0.5
		c-0.8,0-1.4-0.3-1.9-0.8c-0.5-0.5-0.7-1.2-0.7-2c0-0.8,0.2-1.4,0.7-2c0.5-0.5,1.1-0.8,1.9-0.8c0.6,0,1.2,0.2,1.6,0.5
		c0.4,0.3,0.7,0.7,0.9,1.3H124c-0.1-0.3-0.3-0.6-0.6-0.8c-0.3-0.2-0.6-0.3-0.9-0.3c-0.3,0-0.6,0.1-0.9,0.2c-0.2,0.1-0.4,0.3-0.6,0.4
		c-0.4,0.4-0.5,0.9-0.5,1.4c0,0.6,0.2,1.1,0.5,1.4C121.4,86.8,121.9,87,122.5,87"/>
	<path class="st2" d="M130.3,87.7v-0.8c-0.2,0.3-0.4,0.5-0.7,0.7c-0.3,0.2-0.6,0.3-1,0.3c-0.4,0-0.7,0-0.9-0.2
		c-0.3-0.1-0.5-0.2-0.7-0.5c-0.4-0.4-0.7-1-0.7-1.7v-3.1h0.8v3.1c0,0.5,0.1,0.9,0.4,1.2c0.3,0.3,0.6,0.4,1.1,0.4
		c0.5,0,0.8-0.2,1.1-0.5c0.3-0.3,0.5-0.7,0.5-1.2v-3.1h0.8v5.4H130.3z"/>
	<path class="st2" d="M136.2,83.8c-0.1-0.6-0.5-0.8-1.3-0.8c-0.8,0-1.2,0.3-1.2,0.8c0,0.2,0.1,0.4,0.3,0.5c0.2,0.1,0.4,0.2,0.7,0.3
		c0.3,0.1,0.6,0.1,0.9,0.2s0.6,0.1,0.9,0.3c0.3,0.1,0.5,0.3,0.7,0.5c0.2,0.2,0.3,0.5,0.3,0.8c0,0.5-0.2,0.9-0.6,1.2
		c-0.4,0.3-0.9,0.4-1.6,0.4c-0.7,0-1.3-0.2-1.7-0.5c-0.4-0.3-0.6-0.7-0.6-1.2h0.8c0.1,0.5,0.3,0.8,0.8,1c0.2,0.1,0.4,0.1,0.6,0.1
		c0.2,0,0.4,0,0.5,0c0.2,0,0.3-0.1,0.5-0.1c0.3-0.1,0.5-0.4,0.5-0.7c0-0.2-0.1-0.4-0.3-0.5c-0.2-0.1-0.4-0.2-0.7-0.3
		c-0.3-0.1-0.6-0.1-0.9-0.2c-0.3-0.1-0.6-0.1-0.9-0.3c-0.3-0.1-0.5-0.3-0.7-0.4c-0.2-0.2-0.3-0.4-0.3-0.8c0-0.5,0.2-0.9,0.5-1.1
		c0.4-0.3,0.9-0.4,1.6-0.4c0.7,0,1.2,0.2,1.6,0.5c0.3,0.3,0.5,0.6,0.5,1.1H136.2z"/>
	<path class="st2" d="M141.2,87c0.7,0,1.2-0.3,1.6-0.9h0.9c-0.2,0.5-0.5,0.9-0.9,1.2c-0.4,0.3-0.9,0.4-1.6,0.4c-0.8,0-1.5-0.3-2-0.8
		c-0.5-0.5-0.7-1.2-0.7-2c0-0.8,0.2-1.4,0.7-2c0.5-0.5,1.2-0.8,2-0.8c0.8,0,1.5,0.3,2,0.8c0.5,0.5,0.7,1.2,0.7,2v0.3h-4.5
		c0.1,0.5,0.3,0.9,0.6,1.2C140.2,86.9,140.6,87,141.2,87 M141.1,83c-0.5,0-0.9,0.2-1.2,0.5c-0.3,0.3-0.5,0.7-0.6,1.2h3.7
		c-0.1-0.5-0.3-0.9-0.6-1.2C142,83.1,141.6,83,141.1,83"/>
	<path class="st2" d="M149.5,86.8c-0.4,0.6-1.1,0.9-1.9,0.9c-0.8,0-1.4-0.3-1.9-0.8c-0.5-0.5-0.7-1.2-0.7-2c0-0.8,0.2-1.4,0.7-2
		c0.5-0.5,1.1-0.8,1.9-0.8c0.8,0,1.4,0.3,1.9,1v-3h0.8v7.5h-0.8V86.8z M147.7,87c0.6,0,1-0.2,1.4-0.6c0.3-0.4,0.5-0.9,0.5-1.4
		c0-0.6-0.2-1.1-0.5-1.4c-0.3-0.4-0.8-0.6-1.4-0.6c-0.6,0-1,0.2-1.4,0.6c-0.3,0.4-0.5,0.9-0.5,1.4c0,0.6,0.2,1.1,0.5,1.4
		C146.6,86.8,147.1,87,147.7,87"/>
	<path class="st2" d="M83.5,20.4C76.9,12.1,67.6,7.3,58.9,4.4l0,0c0,0-27.8-10-43.4,0S0.2,56.5,0.2,56.5s-2.5,18.7,12.1,29.5
		c5.7,4.7,13.1,7.2,21.5,7.2L57.9,94c14.4,0,25.6-7.2,31.6-20.3C97.1,57.1,94.5,34.2,83.5,20.4 M77.1,66.1
		c-4,8.8-11.6,13.7-21.3,13.7c-3,0-5.3-0.9-7-2.8c-3.7-4.1-3.4-11.5-3-18.7c0.2-4.2,0.4-8.2-0.3-11c-0.7-2.9-5-6.6-10.6-7.5
		c-3.6-0.6-10.4-0.3-15.4,8c-2.4,4-3.1,12,0.6,18.7c2.3,4.2,7.1,9.3,16.7,9.3v3.4c-8.8,0-15.7-3.9-19.6-11.1c-3.8-7-4-16.3-0.5-22.1
		c4.4-7.3,11.2-10.8,18.8-9.6c6.5,1,12.2,5.3,13.4,10c0.8,3.2,0.6,7.5,0.4,12c-0.3,6.2-0.7,13.2,2.1,16.2c1,1.1,2.5,1.7,4.6,1.7
		c10.7,0,15.8-6.4,18.3-11.7c4.8-10.5,3.1-25.4-3.8-34.1C59.8,17.4,37,17.5,36.8,17.5l0-3.4c1,0,24.6-0.1,36.2,14.3
		C80.6,38,82.5,54.6,77.1,66.1"/>
	<path class="st2" d="M106.6,56.7V12.4h3.5v16.6l2.6-1.5c1.1-0.6,2.4-1.1,3.6-1.3c0.8-0.1,1.5-0.2,2.3-0.2c0.7,0,1.5,0.1,2.2,0.2
		l0.3,0.1h0.1c5.4,1.2,9.4,6.1,9.4,11.7v18.8h-3.4V38c0-4.4-3.4-8.2-7.7-8.6l-0.1,0c-0.3,0-0.5,0-0.7,0c-4.6,0-8.3,3.6-8.5,8.1
		l0,0.1v19.2H106.6z"/>
	<path class="st2" d="M165.2,56.7V38c0-4.4-3.4-8.2-7.7-8.6l-0.1,0c-0.3,0-0.5,0-0.7,0c-4.5,0-8.2,3.5-8.5,7.9l0,0.1v19.4h-3.5V37.9
		c0-4.3,2.3-8.3,6.1-10.5c1.1-0.6,2.3-1.1,3.6-1.3c0.8-0.1,1.5-0.2,2.3-0.2c0.7,0,1.5,0.1,2.2,0.2l0.3,0.1h0.1
		c5.4,1.2,9.4,6.1,9.4,11.7v18.8H165.2z"/>
	<rect x="136" y="25.9" class="st2" width="3.5" height="30.8"/>
	<path class="st2" d="M139.7,16.9c0,1.1-0.9,2-2,2c-1.1,0-2-0.9-2-2c0-1.1,0.9-2,2-2C138.8,15,139.7,15.8,139.7,16.9"/>
	<path class="st2" d="M222.1,37.9v18.8h-3.4V38c0-0.2,0-0.3,0-0.5c-0.2-4.2-3.5-7.7-7.7-8.1l-0.1,0c-0.3,0-0.5,0-0.7,0
		c-4.5,0-8.2,3.5-8.5,7.9l0,0.1v15.8c-2.2-2.2-3.5-5.2-3.5-8.4v-6.9c0-3.2,1.3-6.2,3.4-8.4c0.8-0.8,1.7-1.5,2.7-2
		c1.1-0.6,2.3-1.1,3.6-1.3c0.8-0.1,1.5-0.2,2.3-0.2c0.7,0,1.5,0.1,2.2,0.2l0.3,0.1h0.1c2.3,0.5,4.3,1.7,5.9,3.3
		C220.8,31.7,222.1,34.7,222.1,37.9"/>
	<path class="st2" d="M222.1,25.9v18.8c0,3.2-1.3,6.2-3.4,8.4c-0.8,0.8-1.7,1.5-2.7,2c-1.1,0.6-2.3,1.1-3.6,1.3
		c-0.8,0.1-1.5,0.2-2.3,0.2c-0.7,0-1.5-0.1-2.2-0.2l-0.3-0.1h-0.1c-2.3-0.5-4.3-1.7-5.9-3.3c-2.2-2.2-3.5-5.2-3.5-8.4v-6.9l3.4-8.4
		v15.1c0,0.2,0,0.3,0,0.5c0.2,4.2,3.5,7.7,7.7,8.1l0.1,0c0.3,0,0.5,0,0.7,0c4.5,0,8.2-3.5,8.5-7.9V25.9H222.1z"/>
	<path class="st2" d="M174,56.9c-0.7,0-1.3-0.4-1.6-1c-0.3-0.6-0.2-1.3,0.1-1.8l18-24.7H172v-3.5h22c0.7,0,1.3,0.4,1.6,1
		c0.3,0.6,0.2,1.3-0.1,1.8l-18,24.7l18.6,0v3.5H174z"/>
</g>
</svg>
